<svg width="10" height="10" viewBox="0 0 10 10" fill="none" xmlns="http://www.w3.org/2000/svg">
<path fill-rule="evenodd" clip-rule="evenodd" d="M0.46967 0.46674C0.762563 0.173847 1.23744 0.173847 1.53033 0.46674L5 3.93641L8.46967 0.46674C8.76256 0.173847 9.23744 0.173847 9.53033 0.46674C9.82322 0.759633 9.82322 1.23451 9.53033 1.5274L6.06066 4.99707L9.53033 8.46674C9.82322 8.75963 9.82322 9.23451 9.53033 9.5274C9.23744 9.82029 8.76256 9.82029 8.46967 9.5274L5 6.05773L1.53033 9.5274C1.23744 9.82029 0.762563 9.82029 0.46967 9.5274C0.176777 9.23451 0.176777 8.75963 0.46967 8.46674L3.93934 4.99707L0.46967 1.5274C0.176777 1.23451 0.176777 0.759633 0.46967 0.46674Z" fill="white"/>
</svg>
