<svg width="480" height="173" viewBox="0 0 480 173" fill="none" xmlns="http://www.w3.org/2000/svg">
<path d="M92.7073 37.5713C89.4557 38.0189 86.1538 37.9505 82.9237 37.3685C72.245 35.4931 68.4294 29.6424 70.0455 20.4934C70.2849 19.0907 70.6277 17.7076 71.071 16.3552L75.9773 0.656844C77.6405 0.084808 79.9633 0.0594646 83.3441 0.656844C86.8082 1.26508 89.0439 2.10504 90.1925 3.15498L86.087 18.4877C85.9488 18.942 85.8423 19.4053 85.7682 19.8744C85.2645 22.7382 86.1994 24.1972 90.3122 24.9177C92.378 25.2744 94.4897 25.2744 96.5555 24.9177L102.607 5.3164C104.27 4.74436 106.651 4.72988 110.042 5.3164C113.507 5.92464 115.742 6.7646 116.895 7.81454L103.393 55.8402C101.661 56.4014 99.1319 56.3905 95.1641 55.6954C91.1963 55.0003 89.1744 54.211 87.8808 53.1212L92.7073 37.5713Z" fill="white"/>
<path d="M146.941 58.3668C145.615 59.0148 143.463 59.3769 140.002 59.3153C136.614 59.2538 134.614 58.8157 133.382 58.1242L136.281 38.8849C136.34 38.487 136.37 38.0853 136.372 37.683C136.4 36.0755 135.864 35.1269 134.136 35.0943C132.545 35.069 131.139 36.2493 130.193 38.7148L127.766 58.0264C126.316 58.6709 124.08 59.0329 120.555 58.9678C116.956 58.9026 114.956 58.4645 113.67 57.773L118.685 25.3806C121.196 24.2944 124.736 23.7477 129.65 23.8382L129.527 30.4637H130.36C131.809 26.1192 135.197 23.1829 140.731 23.2807C146.195 23.3821 148.641 25.9707 149.329 30.0039H150.159C151.34 25.9381 154.776 23.5233 160.033 23.6174C165.222 23.7115 169.255 26.264 169.125 33.628C169.091 34.6794 169.003 35.7283 168.86 36.7706L167.773 46.2635C167.527 48.2692 168.067 49.1599 169.451 49.1599C170.23 49.1811 171.007 49.0583 171.741 48.7978C172.372 52.1576 170.893 57.2227 168.918 59.3298C166.962 60.3001 165.088 60.7346 162.113 60.6802C155.265 60.5571 153.181 57.0344 153.279 51.6797C153.349 49.9553 153.518 48.2363 153.786 46.5314L155.029 39.2542C155.089 38.8333 155.119 38.4086 155.12 37.9835C155.149 36.376 154.613 35.4274 153.091 35.3984C151.5 35.3695 150.163 36.5534 149.221 39.0189L146.941 58.3668Z" fill="white"/>
<path d="M208.041 36.7234C208.577 42.3062 207.508 47.4726 204.918 51.1438C202.269 54.8801 197.924 57.3239 191.702 57.9249C181.98 58.8626 176.186 54.4203 175.277 45.007C174.802 40.1158 175.744 34.9602 178.049 31.0646C180.516 26.7743 185.296 23.5267 191.916 22.8895C200.99 22.0278 207.041 26.3833 208.041 36.7234ZM189.325 34.6633C188.115 37.0601 188.169 40.9811 188.38 43.1751C188.742 46.7521 189.63 47.9939 191.576 47.8057C192.137 47.757 192.676 47.5619 193.138 47.2397C193.601 46.9176 193.97 46.4798 194.21 45.9701C195.366 43.7037 195.061 39.1744 194.913 37.6719C194.587 34.2832 193.898 32.5743 191.826 32.777C191.273 32.83 190.746 33.036 190.305 33.3718C189.863 33.7076 189.524 34.1599 189.325 34.6778V34.6633Z" fill="white"/>
<path d="M233.799 17.0829C229.889 17.8287 226.62 19.3348 225.145 21.4673C224.033 23.0205 223.363 25.1819 222.971 27.6656L223.696 27.5787C224.866 24.4108 227.548 23.1508 230.581 22.8033C236.889 22.0792 241.089 25.5802 242.176 34.7508C243.263 44.2618 238.828 52.6252 226.878 53.9973C216.568 55.1812 211.793 50.0148 210.63 39.9245C209.811 32.8211 210.731 22.6621 215.293 16.3697C219.279 10.9172 225.696 8.51322 232.085 7.41984L236.908 6.62695C238.839 8.96578 240.071 12.2134 240.484 15.794L233.799 17.0829ZM222.7 35.4279C222.656 36.5351 222.701 37.6441 222.834 38.7442C223.348 43.2047 224.305 44.5805 226.428 44.3379C229.689 43.9758 229.99 39.5263 229.689 37.0028C229.414 34.5952 228.544 32.9116 226.117 33.1904C224.856 33.3352 223.696 33.9435 222.7 35.4279Z" fill="white"/>
<path d="M256.595 29.2179C257.764 28.7033 259.019 28.4099 260.295 28.3526C266.542 27.8313 270.941 30.5249 271.528 37.4834C272.333 47.0487 265.006 49.5976 257.277 50.2456C251.479 50.7308 248.091 50.5172 244.5 49.9886L245.982 22.6902C247.069 22.0457 248.747 21.5751 251.417 21.3506C253.972 21.137 255.816 21.3144 256.773 21.7887L256.595 29.2179ZM256.2 42.2009C256.749 42.2985 257.309 42.3083 257.86 42.2299C259.563 42.0851 260.853 41.0931 260.672 38.9497C260.52 37.1395 259.646 36.267 257.773 36.4154C257.251 36.4497 256.739 36.5721 256.258 36.7774L256.2 42.2009ZM284.874 46.6034C283.729 47.2551 281.939 47.7366 279.043 47.9792C276.09 48.2254 274.416 48.0335 273.289 47.5773L274.771 20.2789C275.858 19.6309 277.536 19.1602 280.207 18.9357C282.743 18.7221 284.606 18.8995 285.562 19.3738L284.874 46.6034Z" fill="white"/>
<path d="M299.631 21.2072C301.994 20.331 305.733 19.5816 309.806 19.4875C317.053 19.3245 322.282 21.2542 322.409 26.837C322.467 29.3424 321.463 31.6704 318.467 32.561V33.0715C321.076 33.7956 322.862 35.4827 322.934 38.7593C323.087 45.5151 315.977 47.061 308.625 47.2276C304.611 47.3665 300.593 47.0618 296.646 46.3188L299.631 21.2072ZM307.491 36.3589L307.205 40.2075C308.067 40.3077 308.936 40.3392 309.803 40.3016C311.125 40.2726 313.133 40.1242 313.089 38.2307C313.057 36.7825 311.828 36.2611 309.393 36.3154L307.491 36.3589ZM307.929 30.1534L309.835 30.1099C310.948 30.0846 313.06 29.8818 313.017 28.039C312.988 26.8117 312.024 26.2288 310.067 26.2614C309.443 26.2662 308.822 26.3489 308.219 26.5075L307.929 30.1534Z" fill="white"/>
<path d="M335.612 47.3458C328.629 47.2552 324.578 43.1858 324.673 35.7168C324.723 31.7342 326.089 27.8893 328.713 25.1812C331.141 22.7048 334.626 21.1986 339.073 21.2457C341.464 21.2747 343.171 21.6295 344.432 22.2594C345.823 24.1674 346.265 27.9074 345.646 30.3584C344.134 29.4972 342.421 29.0512 340.681 29.0659C339.362 29.0478 338.235 29.1782 337.304 29.638C335.829 30.3621 334.768 31.9696 334.768 34.6161C334.721 38.2076 336.71 39.1779 339.884 39.2214C341.696 39.2645 343.497 38.9329 345.175 38.2475C345.435 40.8035 344.363 44.3806 342.384 46.2487C340.551 47.0271 338.739 47.382 335.612 47.3458Z" fill="white"/>
<path d="M356.133 39.0035V39.1773C356.079 40.4771 356.858 41.031 359.235 41.1287C362.097 41.2476 364.949 40.7307 367.587 39.6154C367.5 41.6501 366.428 44.7709 364.888 46.2662C363.058 47.1894 360.242 48.0258 356.441 47.8665C350.314 47.6094 347.02 44.3039 347.241 38.6342C347.429 34.1304 349.053 29.8184 352.252 27.0487C354.488 25.0611 357.492 23.9279 361.206 24.0835C366.663 24.3116 369.37 27.0704 369.196 31.1398C369.029 34.992 366.268 38.8659 356.133 39.0035ZM356.466 33.2506C359.916 33.2216 361.253 32.3672 361.304 31.1543C361.333 30.4302 360.905 29.9234 359.967 29.8835C359.449 29.8655 358.936 29.9769 358.473 30.2077C358.009 30.4385 357.611 30.7813 357.314 31.205C356.897 31.8229 356.608 32.5186 356.466 33.2506Z" fill="white"/>
<path d="M59.9301 78.4051L58.843 78.5065C58.2234 85.2225 55.9007 96.6704 54.6723 102.206L47.9144 132.618C45.3598 133.625 42.3885 134.392 37.6198 134.856C33.2426 135.283 30.1771 135.105 28.1587 134.541L22.1617 105.273C21.0457 99.8673 19.4295 88.3288 18.8498 82.3949L17.7627 82.4999L17.6142 135.359C16.0597 136.554 12.9035 137.245 8.79802 137.643C4.61281 138.049 1.65597 137.958 0 137.075L1.8734 69.6725C4.81935 68.6262 9.62782 67.5871 16.0524 66.9608C22.5748 66.3272 26.5172 66.5118 29.4125 66.9897L35.2935 95.74C36.2646 100.686 37.6851 109.197 38.4424 115.971L39.5295 115.866C39.7251 108.81 40.5513 100.175 41.6492 95.3127L48.1463 65.2084C51.1828 64.1513 55.995 63.1122 62.6116 62.4677C69.4239 61.8052 73.2757 62.0007 76.2651 62.4677L76.2398 129.689C74.6889 130.888 71.5291 131.575 67.4272 131.974C63.242 132.379 60.2853 132.289 58.6257 131.405L59.9301 78.4051Z" fill="white"/>
<path d="M114.65 134.436C107.294 143.762 96.1518 152.176 81.2626 154.924C77.2187 151.478 75.175 145.323 75.6895 138.386C81.4329 137.481 86.9443 135.49 91.2708 132.593L82.7845 87.0873C85.0854 85.8383 89.0496 85.0309 94.1769 85.2771C97.7208 85.4436 100.025 86.0953 101.395 86.7036L103.99 104.998C104.635 109.1 105.29 115.008 104.761 120.316L105.787 120.367C109.048 114.733 112.066 106.106 112.291 101.323C112.367 99.6975 111.842 98.9516 110.258 98.8756C109.678 98.8262 109.095 98.9233 108.562 99.158C108.004 95.1501 110.24 89.3827 112.867 87.1525C114.599 86.0664 116.976 85.1757 120.614 85.3423C128.63 85.7043 131.402 90.3711 131.079 97.1378C130.547 108.412 121.807 125.367 114.65 134.436Z" fill="white"/>
<path d="M155.204 99.3068C157.646 93.8978 162.85 90.3316 170.245 91.3417C177.92 92.4025 183.957 97.7934 182.015 111.841C180.877 120.074 177.667 128.292 172.43 133.499C167.412 138.459 160.545 140.428 153.226 139.422C150.265 139.013 147.819 138.31 146.787 137.611L141.656 157.694C139.59 158.321 136.467 158.418 131.749 157.788C126.85 157.111 124.139 156.192 122.52 155.055L140.376 90.5887C143.913 89.5279 148.74 89.3722 155.302 90.2809L154.081 99.1366L155.204 99.3068ZM153.595 109.567L150.222 122.416C151.147 122.995 152.191 123.358 153.276 123.477C155.494 123.781 157.559 123.155 158.998 121.62C161.194 119.371 162.223 115.32 162.622 112.456C163.328 107.355 161.94 105.795 159.628 105.476C157.038 105.121 155.182 106.96 153.595 109.567Z" fill="white"/>
<path d="M206.044 109.334C208.552 104.265 213.625 101.047 220.629 102.267C227.898 103.53 233.464 108.867 231.137 122.179C229.778 129.974 226.448 137.69 221.285 142.454C216.342 147.009 209.74 148.652 202.805 147.45C200.004 146.962 197.699 146.212 196.735 145.521L191.216 164.467C189.231 164.995 186.252 165.002 181.795 164.224C177.153 163.417 174.617 162.45 173.099 161.328L192.26 100.572C195.666 99.6781 200.264 99.6926 206.482 100.775L205.033 109.167L206.044 109.334ZM204.171 119.051L200.525 131.165C201.386 131.748 202.369 132.127 203.399 132.273C205.501 132.635 207.486 132.114 208.907 130.702C211.081 128.631 212.19 124.811 212.661 122.1C213.501 117.266 212.237 115.739 210.048 115.358C207.595 114.928 205.765 116.622 204.171 119.051Z" fill="white"/>
<path d="M253.476 118.83C255.65 113.932 260.36 110.688 267.06 111.59C274.007 112.524 279.486 117.382 277.772 130.101C276.768 137.552 273.891 144.996 269.166 149.72C264.64 154.224 258.433 156.031 251.82 155.151C249.142 154.789 246.928 154.163 245.989 153.544L241.409 171.726C239.543 172.301 236.717 172.414 232.448 171.842C228.013 171.244 225.563 170.422 224.085 169.398L240.029 111.021C243.228 110.047 247.595 109.892 253.537 110.692L252.45 118.711L253.476 118.83ZM252.052 128.121L249.037 139.753C249.875 140.277 250.822 140.603 251.805 140.705C253.813 140.973 255.679 140.401 256.976 139.007C258.955 136.965 259.875 133.298 260.237 130.706C260.861 126.09 259.603 124.681 257.509 124.399C255.153 124.084 253.479 125.756 252.052 128.121Z" fill="white"/>
<path d="M301.073 146.254C298.797 147.004 295.587 147.25 293.587 147.159C285.115 146.797 281.053 142.731 281.386 135.212C281.451 133.742 281.977 130.976 282.288 129.361L284.502 119.155C288.742 117.482 293.007 116.983 299.881 117.279L297.804 129.774C297.719 130.252 297.671 130.736 297.66 131.222C297.598 132.612 298.196 133.572 300.272 133.662C301.373 133.672 302.466 133.484 303.501 133.108L306.037 119.115C307.668 118.413 310.023 118.051 313.763 118.217C317.361 118.38 319.814 118.941 321.061 119.781L315.295 157.579C313.585 158.278 311.085 158.633 306.929 158.448C302.856 158.267 300.558 157.699 299.073 156.859L301.073 146.254Z" fill="white"/>
<path d="M362.516 141.744C362.425 143.946 363.085 144.858 364.592 144.767C365.443 144.724 366.278 144.524 367.056 144.177C368.034 147.798 366.864 153.417 364.882 155.882C362.99 157.099 360.983 157.732 357.968 157.917C352.236 158.279 349.522 155.944 348.659 151.762L347.753 151.817C346.822 155.173 343.789 158.8 337.836 159.162C331.574 159.546 325.541 156.179 324.791 143.993C324.447 138.374 325.389 132.747 328.494 127.871C332.632 121.318 339.365 118.562 347.043 118.095C353.982 117.668 359.149 119.258 363.251 121.937L362.516 141.744ZM348.416 130.3C347.692 129.997 346.905 129.873 346.123 129.938C345.255 129.978 344.411 130.238 343.672 130.693C342.932 131.149 342.32 131.785 341.894 132.541C340.586 134.674 340.358 138.334 340.499 140.684C340.749 144.771 342.18 145.857 343.988 145.752C345.271 145.673 346.289 145.028 347.21 143.942L348.416 130.3Z" fill="white"/>
<path d="M405.956 135.928C406.072 138.002 406.775 138.795 408.181 138.567C408.973 138.45 409.736 138.186 410.431 137.789C411.682 141.072 411.109 146.46 409.496 148.951C407.685 150.287 405.873 151.069 402.858 151.554C395.908 152.672 393.093 149.505 392.216 144.07C391.97 142.313 391.828 140.543 391.792 138.77L391.607 127.365L390.556 127.535C387.186 128.079 386.277 130.037 386.367 135.949C386.483 148.259 383.802 153.092 374.087 156.26C371.058 154.45 368.905 150.468 368.268 145.627C372.308 144.349 373.83 143.056 373.837 135.526C373.873 123.252 379.675 118.148 392.031 116.145L404.597 114.122L405.956 135.928Z" fill="white"/>
<path d="M434.862 138.372C434.398 142.134 431.963 145.172 426.792 146.424C421.357 147.735 416.787 146.446 415.106 139.484C414.846 138.503 414.673 137.501 414.588 136.49L413.059 115.954C416.128 113.619 419.49 112.211 425.129 110.853L427.372 130.357C427.431 130.827 427.521 131.292 427.64 131.751C427.973 133.13 428.803 133.727 430.227 133.383C430.847 133.236 431.419 132.935 431.891 132.508C432.363 132.081 432.719 131.541 432.927 130.94L430.752 110.828C431.898 109.887 433.88 109.018 436.797 108.293C439.779 107.569 441.942 107.45 443.131 107.826L445.805 127.424C446.066 129.354 446.78 130.042 448.077 129.73C448.809 129.564 449.503 129.262 450.124 128.84C451.53 131.819 451.385 136.899 450.055 139.339C448.606 140.686 447.084 141.511 444.555 142.123C439.695 143.296 437.043 141.678 435.644 138.166L434.862 138.372Z" fill="white"/>
<path d="M228.396 74.7949L229.001 74.8927C231.048 75.2257 232.237 74.4039 233.309 71.9963L233.505 71.551C235.965 65.9646 240.422 65.197 246.144 66.1202L246.387 66.1601C247.177 68.5025 247.354 71.5908 246.749 75.2113L246.267 75.1352C244.455 74.8384 243.368 75.3814 242.759 76.8984L242.553 77.4016C241.687 79.2952 240.306 80.5659 237.397 80.5696L237.302 81.1525C239.995 82.0721 240.429 83.5818 240.632 84.9902C240.93 86.9561 241.509 87.9481 243.799 88.321C244.533 88.4488 245.288 88.3877 245.992 88.1436C246.209 91.3514 244.209 95.6344 242.078 97.3215C240.908 97.6836 239.455 97.8501 237.165 97.4772C229.997 96.3042 228.657 92.0175 228.541 86.6665C228.461 84.1321 228.095 83.7194 226.229 83.408L225.986 83.3682L223.243 93.339C221.88 93.7011 219.956 93.759 216.884 93.2594C213.811 92.7597 212.122 92.1225 211.086 91.3514L219.75 63.3687C221.051 62.9813 222.855 62.9161 225.685 63.3687C228.396 63.8104 230.207 64.4548 231.077 65.2079L228.396 74.7949Z" fill="white"/>
<path d="M284.243 81.8468C283.881 87.4441 282.003 92.3752 278.862 95.5829C275.648 98.8413 270.97 100.572 264.73 100.174C254.983 99.5473 249.971 94.2361 250.576 84.8047C250.892 79.899 252.645 74.957 255.544 71.4814C258.661 67.64 263.907 65.1962 270.539 65.6198C279.626 66.2027 284.91 71.485 284.243 81.8468ZM266.1 76.8288C264.523 79.0011 263.947 82.8823 263.806 85.0835C263.578 88.6678 264.273 90.04 266.223 90.1522C266.786 90.1948 267.351 90.0884 267.859 89.8437C268.368 89.599 268.804 89.2246 269.122 88.7583C270.622 86.7091 271.042 82.1871 271.14 80.6774C271.358 77.2814 270.952 75.4892 268.872 75.3553C268.318 75.3194 267.766 75.4383 267.276 75.6986C266.787 75.9588 266.379 76.3502 266.1 76.8288Z" fill="white"/>
<path d="M322.32 97.7161C321.048 98.4656 318.935 98.9978 315.482 99.2114C312.098 99.4214 310.069 99.1462 308.786 98.5561L310.145 79.1467C310.173 78.7441 310.173 78.34 310.145 77.9375C310.043 76.3336 309.42 75.4321 307.706 75.5407C306.119 75.6384 304.807 76.9273 304.082 79.4544L303.18 98.9C301.771 99.6603 299.586 100.196 296.064 100.417C292.473 100.638 290.447 100.363 289.092 99.7762L291.501 67.0832C293.915 65.7943 297.401 64.9725 302.303 64.6684L302.713 71.2866L303.543 71.2359C304.655 66.8045 307.782 63.5895 313.308 63.2492C318.765 62.9088 321.407 65.2947 322.414 69.2591L323.244 69.2085C324.095 65.063 327.328 62.3802 332.575 62.0544C337.753 61.7322 341.996 63.9552 342.438 71.3047C342.494 72.3563 342.494 73.4102 342.438 74.4618L342.13 84.009C342.046 86.0256 342.652 86.8583 344.032 86.775C344.811 86.7349 345.575 86.5508 346.286 86.232C347.185 89.5302 346.119 94.6966 344.318 96.9558C342.445 98.0782 340.612 98.6611 337.64 98.8457C330.806 99.2693 328.447 95.9276 328.118 90.5802C328.048 88.8552 328.08 87.1277 328.212 85.4065L328.864 78.0533C328.896 77.6291 328.896 77.2031 328.864 76.7789C328.766 75.175 328.157 74.2735 326.635 74.3676C325.048 74.4654 323.809 75.7507 323.066 78.2778L322.32 97.7161Z" fill="white"/>
<path d="M370.894 88.2681C369.891 92.3121 366.847 95.3063 361.027 95.9833C354.914 96.7074 350.106 94.6872 349.193 86.8669C349.042 85.7622 348.986 84.6467 349.026 83.5325L350.081 60.9226C353.737 58.7829 357.592 57.6931 363.926 56.94L363.785 78.5181C363.788 79.0388 363.824 79.5588 363.894 80.0749C364.075 81.6245 364.901 82.3848 366.499 82.1965C367.193 82.1168 367.855 81.8637 368.425 81.4606C368.995 81.0575 369.454 80.5175 369.76 79.8903L370.046 57.6569C371.42 56.7807 373.699 56.0892 376.971 55.7055C380.319 55.3181 382.696 55.4701 383.943 56.0385L384.265 77.7614C384.294 79.9011 384.99 80.7483 386.439 80.5782C387.26 80.4936 388.058 80.2553 388.791 79.8758C389.929 83.3152 389.095 88.8365 387.32 91.3274C385.552 92.6054 383.791 93.3078 380.953 93.6372C375.496 94.2744 372.815 92.1601 371.757 88.1413L370.894 88.2681Z" fill="white"/>
<path d="M407.535 64.5429L408.307 64.485C410.93 64.3004 412.151 62.9354 412.771 59.6661L412.88 59.0579C414.275 51.4549 419.54 49.1993 426.87 48.678L427.178 48.6562C428.841 51.3137 429.961 55.0609 430.295 59.6879L429.675 59.7313C427.363 59.8978 426.193 60.8826 425.874 62.9318L425.769 63.6125C425.254 66.2011 423.924 68.1743 420.333 69.0432L420.388 69.789C423.979 70.1511 424.953 71.8635 425.616 73.5434C426.559 75.8787 427.566 76.9322 430.497 76.7222C431.441 76.6636 432.354 76.3658 433.15 75.8569C434.357 79.7489 433.15 85.6105 431.016 88.315C429.679 89.0862 427.939 89.7378 425.008 89.9442C415.829 90.6031 412.919 85.7083 411.209 79.1516C410.369 76.0597 409.796 75.6506 407.404 75.8207L407.096 75.8424L406.64 88.9305C405.071 89.7958 402.712 90.4149 398.78 90.6937C394.849 90.9724 392.577 90.6936 391.059 90.0456L393.523 53.0262C395.012 52.1681 397.219 51.578 400.842 51.3028C404.314 51.053 406.738 51.3318 408.024 51.9907L407.535 64.5429Z" fill="white"/>
<path d="M458.788 82.9296C457.016 87.2054 453.179 89.9932 446.667 89.7796C439.837 89.5515 434.887 86.5501 435.177 77.8102C435.19 76.5711 435.311 75.3355 435.539 74.1174L440.431 49.451C444.805 47.7023 449.222 47.1411 456.299 47.3729L452.581 71.0581C452.499 71.6303 452.453 72.2071 452.443 72.785C452.385 74.5192 453.168 75.4895 454.958 75.5511C455.737 75.5801 456.511 75.4122 457.208 75.0628C457.904 74.7134 458.502 74.194 458.944 73.5526L462.93 49.1686C464.582 48.4445 467.202 48.0499 470.862 48.173C474.605 48.2961 477.192 48.8536 478.471 49.6864L475.232 73.6213C474.91 75.9747 475.529 77.0174 477.156 77.0717C478.072 77.1136 478.988 76.9834 479.856 76.6879C480.537 80.6704 478.714 86.5827 476.352 89.0265C474.177 90.138 472.145 90.6231 468.97 90.5181C462.868 90.3154 460.274 87.5494 459.774 82.9622L458.788 82.9296Z" fill="white"/>
</svg>
