<svg width="87" height="89" viewBox="0 0 87 89" fill="none" xmlns="http://www.w3.org/2000/svg">
<path d="M57.3867 56.9956V47.732C57.6432 47.5993 58.06 47.533 58.6371 47.533C59.2234 47.533 59.6448 47.5993 59.9013 47.732V56.9956C59.6448 57.1283 59.2234 57.1947 58.6371 57.1947C58.06 57.1947 57.6432 57.1283 57.3867 56.9956ZM51.3133 47.732V50.9305C51.698 50.8155 52.2064 50.758 52.8385 50.758C55.3393 50.758 56.5898 51.8241 56.5898 53.9564C56.5898 54.5846 56.4753 55.1155 56.2462 55.549C56.0264 55.9737 55.692 56.3055 55.2432 56.5444C54.8035 56.7833 54.3042 56.9514 53.7454 57.0487C53.1958 57.146 52.5454 57.1947 51.7942 57.1947C50.585 57.1947 49.5865 57.1328 48.7987 57.0089V47.732C49.0552 47.5993 49.472 47.533 50.0491 47.533C50.6354 47.533 51.0568 47.5993 51.3133 47.732ZM51.2858 52.8947V55.2438C51.5606 55.288 51.8904 55.3101 52.2751 55.3101C52.8889 55.3101 53.3423 55.2128 53.6355 55.0182C53.9286 54.8147 54.0752 54.4784 54.0752 54.0095C54.0752 53.5494 53.9286 53.2265 53.6355 53.0407C53.3515 52.846 52.9255 52.7487 52.3576 52.7487C51.8996 52.7487 51.5423 52.7974 51.2858 52.8947Z" fill="white"/>
<path d="M47.0515 49.8025C46.4011 49.5017 45.7278 49.3513 45.0316 49.3513C44.0697 49.3513 43.3185 49.599 42.7781 50.0945C42.2376 50.5811 41.9673 51.3376 41.9673 52.364C41.9673 53.3991 42.233 54.1556 42.7643 54.6334C43.3048 55.1023 44.0376 55.3368 44.9629 55.3368C45.7507 55.3368 46.511 55.1997 47.2438 54.9254C47.2713 55.2173 47.2164 55.5801 47.0789 56.0136C46.9507 56.4383 46.7812 56.7613 46.5705 56.9825C45.9201 57.2833 45.1232 57.4337 44.1796 57.4337C42.6773 57.4337 41.5002 57.0002 40.6482 56.1331C39.7963 55.2572 39.3703 54.045 39.3703 52.4967C39.3703 50.8775 39.8421 49.6079 40.7856 48.6877C41.7292 47.7587 42.9888 47.2942 44.5644 47.2942C45.398 47.2942 46.0804 47.4313 46.6118 47.7056C46.795 47.9445 46.9278 48.2719 47.0102 48.6877C47.1018 49.0947 47.1156 49.4663 47.0515 49.8025Z" fill="white"/>
<path d="M31.098 55.0845C31.5011 55.2969 31.9545 55.403 32.4584 55.403C32.8156 55.403 33.0859 55.3455 33.2691 55.2305C33.4614 55.1155 33.6126 54.9341 33.7225 54.6864L33.805 54.5006L30.6446 47.7453C30.8461 47.6037 31.2812 47.533 31.9499 47.533C32.5912 47.533 33.0446 47.6037 33.3103 47.7453L34.3683 50.2404C34.7531 51.1163 35.0004 51.9259 35.1103 52.6691H35.234C35.3348 51.7578 35.5363 50.9305 35.8386 50.1873L36.7867 47.7453C37.0707 47.6037 37.4967 47.533 38.0646 47.533C38.6143 47.533 39.0219 47.6037 39.2876 47.7453L36.3608 54.5006C36.1317 55.0314 35.9256 55.4517 35.7424 55.7614C35.5592 56.071 35.3302 56.3674 35.0554 56.6506C34.7897 56.9337 34.4737 57.1328 34.1073 57.2478C33.7408 57.3717 33.3057 57.4336 32.8019 57.4336C32.2797 57.4336 31.8629 57.3761 31.5515 57.2611C31.1484 56.6594 30.9972 55.9339 31.098 55.0845Z" fill="white"/>
<path d="M26.6676 56.9956V53.2928H23.0126V56.9956C22.7561 57.1283 22.3392 57.1947 21.7621 57.1947C21.1942 57.1947 20.7819 57.1283 20.5255 56.9956V47.732C20.7819 47.5993 21.1942 47.533 21.7621 47.533C22.3392 47.533 22.7561 47.5993 23.0126 47.732V51.2888H26.6676V47.732C26.9241 47.5993 27.3363 47.533 27.9043 47.533C28.4814 47.533 28.8982 47.5993 29.1547 47.732V56.9956C28.8982 57.1283 28.4814 57.1947 27.9043 57.1947C27.3363 57.1947 26.9241 57.1283 26.6676 56.9956Z" fill="white"/>
<path d="M14.0139 47.2942C15.4979 47.2942 16.6704 47.7233 17.5315 48.5815C18.4018 49.4309 18.8369 50.6563 18.8369 52.2578C18.8369 53.9212 18.4064 55.1997 17.5453 56.0933C16.6842 56.9869 15.507 57.4337 14.0139 57.4337C12.4383 57.4337 11.2382 57.0046 10.4138 56.1464C9.58932 55.2793 9.17709 53.9831 9.17709 52.2578C9.17709 50.7271 9.62596 49.5194 10.5237 48.6346C11.4214 47.741 12.5848 47.2942 14.0139 47.2942ZM11.7741 52.2578C11.7741 53.2664 11.9711 54.0406 12.365 54.5803C12.7589 55.12 13.3085 55.3899 14.0139 55.3899C15.4979 55.3899 16.2399 54.3458 16.2399 52.2578C16.2399 51.3465 16.0384 50.6298 15.6353 50.1078C15.2322 49.5858 14.6918 49.3247 14.0139 49.3247C13.2902 49.3247 12.736 49.5769 12.3512 50.0812C11.9665 50.5856 11.7741 51.3111 11.7741 52.2578Z" fill="white"/>
<path d="M2.83078 49.5901V51.2225C3.25217 51.1075 3.7789 51.05 4.41098 51.05C5.56522 51.05 6.49044 51.2844 7.18664 51.7534C7.89201 52.2223 8.24469 52.9965 8.24469 54.0759C8.24469 55.2172 7.83246 56.0224 7.00801 56.4913C6.19272 56.9603 5.04306 57.1947 3.55905 57.1947C2.23992 57.1947 1.17271 57.1328 0.357422 57.0089V47.5993H7.48894C7.59887 47.794 7.65383 48.1214 7.65383 48.5814C7.65383 49.0592 7.59887 49.3954 7.48894 49.5901H2.83078ZM2.78956 53.054V55.2703C3.0827 55.3146 3.43538 55.3367 3.84761 55.3367C4.48885 55.3367 4.96062 55.2438 5.26292 55.058C5.57438 54.8633 5.73011 54.5537 5.73011 54.129C5.73011 53.6954 5.57896 53.3902 5.27666 53.2132C4.97436 53.0274 4.52549 52.9345 3.93005 52.9345C3.46286 52.9345 3.0827 52.9743 2.78956 53.054Z" fill="white"/>
<path d="M85.1812 36.2936V36.413C86.3402 36.7227 86.9198 37.4659 86.9198 38.6426C86.9198 39.3239 86.7207 39.8858 86.3226 40.3281C85.9333 40.7617 85.4334 41.0669 84.8229 41.2439C84.2124 41.412 83.4913 41.496 82.6596 41.496C81.2351 41.496 80.0805 41.4474 79.1957 41.3501V31.967C80.1071 31.7635 81.1688 31.6618 82.3809 31.6618C83.6284 31.6618 84.615 31.8741 85.3405 32.2988C86.066 32.7147 86.4287 33.3738 86.4287 34.2763C86.4287 34.7718 86.3181 35.2009 86.0969 35.5636C85.8757 35.9264 85.5705 36.1697 85.1812 36.2936ZM81.5846 37.4217V39.5318C81.8412 39.5672 82.2128 39.5849 82.6994 39.5849C83.8585 39.5849 84.438 39.2266 84.438 38.5099C84.438 37.7844 83.8452 37.4217 82.6596 37.4217H81.5846ZM81.5846 33.6127V35.5769H82.6331C83.5355 35.5769 83.9868 35.2407 83.9868 34.5683C83.9868 33.8781 83.478 33.5331 82.4605 33.5331C82.1332 33.5331 81.8412 33.5596 81.5846 33.6127Z" fill="white"/>
<path d="M72.9097 31.5293C74.343 31.5293 75.4755 31.9584 76.3072 32.8166C77.1477 33.666 77.568 34.8914 77.568 36.4929C77.568 38.1563 77.1521 39.4348 76.3204 40.3284C75.4888 41.222 74.3518 41.6688 72.9097 41.6688C71.3878 41.6688 70.2288 41.2397 69.4325 40.3815C68.6362 39.5144 68.2381 38.2182 68.2381 36.4929C68.2381 34.9622 68.6716 33.7545 69.5387 32.8697C70.4058 31.9761 71.5294 31.5293 72.9097 31.5293ZM70.7464 36.4929C70.7464 37.5015 70.9366 38.2757 71.3171 38.8154C71.6975 39.3551 72.2284 39.625 72.9097 39.625C74.343 39.625 75.0596 38.581 75.0596 36.4929C75.0596 35.5816 74.865 34.8649 74.4757 34.3429C74.0864 33.8209 73.5644 33.5599 72.9097 33.5599C72.2107 33.5599 71.6754 33.812 71.3038 34.3163C70.9322 34.8207 70.7464 35.5462 70.7464 36.4929Z" fill="white"/>
<path d="M61.8723 31.9668V35.5369H62.4297C62.819 35.5369 63.1154 35.4661 63.3189 35.3245C63.5313 35.183 63.6905 34.9352 63.7967 34.5813L64.0621 33.6921C64.301 32.9135 64.6372 32.3782 65.0708 32.0862C65.5132 31.7943 66.1546 31.6483 66.9952 31.6483H67.2341C67.3402 31.8252 67.3933 32.1438 67.3933 32.6038C67.3933 33.0639 67.3402 33.3824 67.2341 33.5594H67.1013C66.8713 33.5594 66.6943 33.6081 66.5705 33.7054C66.4466 33.8027 66.3449 33.9929 66.2652 34.2761L66.0131 35.0989C65.8892 35.4971 65.7122 35.7979 65.4822 36.0014C65.2522 36.2049 64.9513 36.3597 64.5797 36.4659V36.5853C65.0221 36.7534 65.3495 36.926 65.5618 37.1029C65.783 37.2799 66.0219 37.6117 66.2785 38.0983L67.964 41.2039C67.7605 41.3543 67.3093 41.4295 66.6103 41.4295C65.8848 41.4295 65.3805 41.3543 65.0973 41.2039L63.8365 38.5893C63.6419 38.1912 63.4384 37.9258 63.226 37.793C63.0225 37.6515 62.6996 37.5807 62.2572 37.5807H61.8723V41.2304C61.6246 41.3631 61.222 41.4295 60.6646 41.4295C60.1161 41.4295 59.7179 41.3631 59.4702 41.2304V31.9668C59.7179 31.8341 60.1161 31.7677 60.6646 31.7677C61.222 31.7677 61.6246 31.8341 61.8723 31.9668Z" fill="white"/>
<path d="M55.3532 41.2305V33.7719H55.2338C55.0568 34.6655 54.7339 35.5857 54.2649 36.5324L51.9424 41.2836C51.6062 41.3898 51.1284 41.4429 50.5091 41.4429C49.8898 41.4429 49.3987 41.3898 49.0359 41.2836V31.9669C49.266 31.8342 49.6199 31.7679 50.0977 31.7679C50.5755 31.7679 50.9294 31.8342 51.1594 31.9669V39.1203H51.2788C51.4381 38.2179 51.7478 37.3066 52.2078 36.3864L54.4109 31.9006C54.8179 31.8033 55.3134 31.7546 55.8973 31.7546C56.5344 31.7546 57.0608 31.8033 57.4767 31.9006V41.2305C57.2466 41.3633 56.8927 41.4296 56.4149 41.4296C55.9372 41.4296 55.5832 41.3633 55.3532 41.2305Z" fill="white"/>
<path d="M47.658 33.9178H45.1099V41.2305C44.8621 41.3632 44.4551 41.4296 43.8889 41.4296C43.3315 41.4296 42.9289 41.3632 42.6812 41.2305V33.9178H40.133C40.018 33.7055 39.9605 33.356 39.9605 32.8694C39.9605 32.3916 40.018 32.0465 40.133 31.8342H47.658C47.773 32.0465 47.8305 32.3916 47.8305 32.8694C47.8305 33.356 47.773 33.7055 47.658 33.9178Z" fill="white"/>
<path d="M34.895 31.5293C36.3284 31.5293 37.4609 31.9584 38.2926 32.8166C39.1331 33.666 39.5534 34.8914 39.5534 36.4929C39.5534 38.1563 39.1375 39.4348 38.3058 40.3284C37.4742 41.222 36.3372 41.6688 34.895 41.6688C33.3732 41.6688 32.2142 41.2397 31.4179 40.3815C30.6216 39.5144 30.2234 38.2182 30.2234 36.4929C30.2234 34.9622 30.657 33.7545 31.5241 32.8697C32.3911 31.9761 33.5148 31.5293 34.895 31.5293ZM32.7318 36.4929C32.7318 37.5015 32.922 38.2757 33.3025 38.8154C33.6829 39.3551 34.2138 39.625 34.895 39.625C36.3284 39.625 37.045 38.581 37.045 36.4929C37.045 35.5816 36.8504 34.8649 36.4611 34.3429C36.0718 33.8209 35.5498 33.5599 34.895 33.5599C34.1961 33.5599 33.6608 33.812 33.2892 34.3163C32.9176 34.8207 32.7318 35.5462 32.7318 36.4929Z" fill="white"/>
<path d="M23.8588 31.9668V35.5369H24.4162C24.8055 35.5369 25.1019 35.4661 25.3054 35.3245C25.5178 35.183 25.677 34.9352 25.7832 34.5813L26.0486 33.6921C26.2875 32.9135 26.6237 32.3782 27.0573 32.0862C27.4997 31.7943 28.1411 31.6483 28.9816 31.6483H29.2205C29.3267 31.8252 29.3798 32.1438 29.3798 32.6038C29.3798 33.0639 29.3267 33.3824 29.2205 33.5594H29.0878C28.8578 33.5594 28.6808 33.6081 28.557 33.7054C28.4331 33.8027 28.3313 33.9929 28.2517 34.2761L27.9996 35.0989C27.8757 35.4971 27.6987 35.7979 27.4687 36.0014C27.2386 36.2049 26.9378 36.3597 26.5662 36.4659V36.5853C27.0086 36.7534 27.336 36.926 27.5483 37.1029C27.7695 37.2799 28.0084 37.6117 28.265 38.0983L29.9505 41.2039C29.747 41.3543 29.2957 41.4295 28.5968 41.4295C27.8713 41.4295 27.3669 41.3543 27.0838 41.2039L25.823 38.5893C25.6284 38.1912 25.4249 37.9258 25.2125 37.793C25.009 37.6515 24.6861 37.5807 24.2437 37.5807H23.8588V41.2304C23.6111 41.3631 23.2085 41.4295 22.6511 41.4295C22.1025 41.4295 21.7044 41.3631 21.4567 41.2304V31.9668C21.7044 31.8341 22.1025 31.7677 22.6511 31.7677C23.2085 31.7677 23.6111 31.8341 23.8588 31.9668Z" fill="white"/>
<path d="M17.4335 33.9178H14.8853V41.2305C14.6376 41.3632 14.2306 41.4296 13.6643 41.4296C13.1069 41.4296 12.7044 41.3632 12.4566 41.2305V33.9178H9.90849C9.79347 33.7055 9.73596 33.356 9.73596 32.8694C9.73596 32.3916 9.79347 32.0465 9.90849 31.8342H17.4335C17.5485 32.0465 17.606 32.3916 17.606 32.8694C17.606 33.356 17.5485 33.7055 17.4335 33.9178Z" fill="white"/>
<path d="M4.6716 31.5293C6.10493 31.5293 7.23744 31.9584 8.06912 32.8166C8.90966 33.666 9.32993 34.8914 9.32993 36.4929C9.32993 38.1563 8.91408 39.4348 8.0824 40.3284C7.25071 41.222 6.11378 41.6688 4.6716 41.6688C3.14979 41.6688 1.99074 41.2397 1.19444 40.3815C0.398148 39.5144 0 38.2182 0 36.4929C0 34.9622 0.433538 33.7545 1.30062 32.8697C2.16769 31.9761 3.29135 31.5293 4.6716 31.5293ZM2.50833 36.4929C2.50833 37.5015 2.69856 38.2757 3.07901 38.8154C3.45946 39.3551 3.99032 39.625 4.6716 39.625C6.10493 39.625 6.8216 38.581 6.8216 36.4929C6.8216 35.5816 6.62695 34.8649 6.23764 34.3429C5.84835 33.8209 5.32633 33.5599 4.6716 33.5599C3.97263 33.5599 3.43734 33.812 3.06574 34.3163C2.69413 34.8207 2.50833 35.5462 2.50833 36.4929Z" fill="white"/>
<path d="M73.4695 25.4665V18.0078H73.3418C73.1526 18.9014 72.8073 19.8216 72.306 20.7683L69.8228 25.5195C69.4634 25.6257 68.9526 25.6788 68.2904 25.6788C67.6282 25.6788 67.1032 25.6257 66.7154 25.5195V16.2029C66.9613 16.0701 67.3397 16.0038 67.8505 16.0038C68.3613 16.0038 68.7397 16.0701 68.9857 16.2029V23.3563H69.1134C69.2836 22.4538 69.6147 21.5425 70.1066 20.6223L72.462 16.1365C72.8972 16.0392 73.4269 15.9905 74.0512 15.9905C74.7323 15.9905 75.2952 16.0392 75.7397 16.1365V25.4665C75.4938 25.5992 75.1154 25.6655 74.6046 25.6655C74.0938 25.6655 73.7154 25.5992 73.4695 25.4665Z" fill="white"/>
<path d="M61.992 25.4661V22.2544C61.2447 22.4933 60.4691 22.6127 59.665 22.6127C58.5015 22.6127 57.6407 22.3473 57.0826 21.8164C56.5339 21.2856 56.2596 20.4937 56.2596 19.4408V16.2025C56.5244 16.0698 56.9501 16.0035 57.5366 16.0035C58.142 16.0035 58.5772 16.0698 58.842 16.2025V19.2019C58.842 19.6532 58.9555 19.9673 59.1826 20.1442C59.419 20.3212 59.8258 20.4096 60.4028 20.4096C60.9799 20.4096 61.5096 20.3212 61.992 20.1442V16.2025C62.2569 16.0698 62.6873 16.0035 63.2832 16.0035C63.8887 16.0035 64.3238 16.0698 64.5887 16.2025V25.4661C64.3238 25.5989 63.8887 25.6652 63.2832 25.6652C62.6873 25.6652 62.2569 25.5989 61.992 25.4661Z" fill="white"/>
<path d="M47.1743 23.555C47.5905 23.7674 48.0587 23.8735 48.579 23.8735C48.9479 23.8735 49.227 23.816 49.4162 23.701C49.6148 23.586 49.7709 23.4046 49.8844 23.1569L49.9695 22.9711L46.706 16.2158C46.9141 16.0742 47.3635 16.0035 48.054 16.0035C48.7162 16.0035 49.1844 16.0742 49.4587 16.2158L50.5513 18.7109C50.9486 19.5868 51.204 20.3964 51.3175 21.1396H51.4452C51.5493 20.2283 51.7574 19.401 52.0695 18.6578L53.0486 16.2158C53.3418 16.0742 53.7817 16.0035 54.3682 16.0035C54.9357 16.0035 55.3567 16.0742 55.631 16.2158L52.6087 22.9711C52.3722 23.5019 52.1594 23.9222 51.9702 24.2319C51.781 24.5415 51.5445 24.8379 51.2607 25.1211C50.9864 25.4042 50.6601 25.6033 50.2817 25.7183C49.9033 25.8422 49.454 25.9041 48.9337 25.9041C48.3945 25.9041 47.9641 25.8466 47.6425 25.7316C47.2263 25.1299 47.0702 24.4044 47.1743 23.555Z" fill="white"/>
<path d="M45.1731 16.0701V25.4664C44.9082 25.5991 44.4778 25.6655 43.8819 25.6655C43.2954 25.6655 42.8697 25.5991 42.6049 25.4664V18.1007H39.9089V19.1757C39.9089 20.0073 39.8758 20.7329 39.8096 21.3522C39.7434 21.9627 39.6157 22.5511 39.4265 23.1173C39.2467 23.6836 39.0008 24.1525 38.6886 24.5241C38.3765 24.8869 37.965 25.1921 37.4542 25.4399C36.9528 25.6788 36.3521 25.8336 35.6521 25.9044C35.463 25.7009 35.3258 25.4001 35.2407 25.0019C35.165 24.5949 35.165 24.2145 35.2407 23.8605C36.1582 23.7013 36.7731 23.2987 37.0853 22.6528C37.4069 22.0069 37.5677 20.8877 37.5677 19.2951V16.0701H45.1731Z" fill="white"/>
<path d="M29.7604 15.7644C31.2929 15.7644 32.5037 16.1935 33.3929 17.0518C34.2915 17.9011 34.7408 19.1265 34.7408 20.728C34.7408 22.3914 34.2962 23.6699 33.4071 24.5635C32.5179 25.4571 31.3023 25.9039 29.7604 25.9039C28.1334 25.9039 26.8942 25.4748 26.0429 24.6166C25.1915 23.7495 24.7658 22.4533 24.7658 20.728C24.7658 19.1973 25.2294 17.9896 26.1564 17.1048C27.0834 16.2112 28.2848 15.7644 29.7604 15.7644ZM27.4476 20.728C27.4476 21.7366 27.651 22.5108 28.0577 23.0505C28.4645 23.5902 29.0321 23.8601 29.7604 23.8601C31.2929 23.8601 32.0591 22.8161 32.0591 20.728C32.0591 19.8167 31.851 19.1 31.4348 18.578C31.0185 18.056 30.4604 17.795 29.7604 17.795C29.0131 17.795 28.4408 18.0471 28.0435 18.5514C27.6462 19.0558 27.4476 19.7813 27.4476 20.728Z" fill="white"/>
<path d="M20.4536 25.4664V18.1405H16.9063V25.4664C16.6415 25.5991 16.2111 25.6655 15.6151 25.6655C15.0286 25.6655 14.6029 25.5991 14.3381 25.4664V16.0701H23.0219V25.4664C22.757 25.5991 22.3266 25.6655 21.7307 25.6655C21.1442 25.6655 20.7185 25.5991 20.4536 25.4664Z" fill="white"/>
<path d="M7.11147 25.4665V18.0078H6.98377C6.79458 18.9014 6.44931 19.8216 5.94796 20.7683L3.46485 25.5195C3.10539 25.6257 2.59458 25.6788 1.93242 25.6788C1.27026 25.6788 0.74526 25.6257 0.357422 25.5195V16.2029C0.603368 16.0701 0.981746 16.0038 1.49256 16.0038C2.00337 16.0038 2.38175 16.0701 2.62769 16.2029V23.3563H2.75539C2.92566 22.4538 3.25675 21.5425 3.74864 20.6223L6.10404 16.1365C6.53918 16.0392 7.06891 15.9905 7.69323 15.9905C8.37431 15.9905 8.93715 16.0392 9.38174 16.1365V25.4665C9.1358 25.5992 8.75742 25.6655 8.24661 25.6655C7.7358 25.6655 7.35742 25.5992 7.11147 25.4665Z" fill="white"/>
<path d="M73.5487 9.70151V2.24286H73.4254C73.2428 3.13648 72.9095 4.05665 72.4255 5.00336L70.0283 9.7546C69.6813 9.86077 69.1881 9.91386 68.5489 9.91386C67.9096 9.91386 67.4028 9.86077 67.0284 9.7546V0.437917C67.2658 0.3052 67.6311 0.238842 68.1242 0.238842C68.6174 0.238842 68.9827 0.3052 69.2201 0.437917V7.59132H69.3434C69.5078 6.68885 69.8274 5.77753 70.3022 4.85737L72.5761 0.371558C72.9962 0.274233 73.5076 0.225571 74.1103 0.225571C74.7679 0.225571 75.3112 0.274233 75.7404 0.371558V9.70151C75.503 9.83423 75.1377 9.90058 74.6446 9.90058C74.1514 9.90058 73.7861 9.83423 73.5487 9.70151Z" fill="white"/>
<path d="M63.5456 9.83419H57.5458V12.4089C57.3266 12.5239 56.9613 12.5814 56.4499 12.5814C55.9386 12.5814 55.5733 12.5239 55.3541 12.4089V7.75054H56.176C57.1805 6.30836 57.6828 4.59632 57.6828 2.61442V0.305161H64.4497V7.75054H65.7373V12.4089C65.5181 12.5239 65.1528 12.5814 64.6415 12.5814C64.1301 12.5814 63.7648 12.5239 63.5456 12.4089V9.83419ZM58.4636 7.80363H62.0936V2.18973H59.8745C59.8654 3.42842 59.7466 4.49015 59.5183 5.37492C59.2992 6.2597 58.9476 7.06927 58.4636 7.80363Z" fill="white"/>
<path d="M50.0783 0C51.5577 0 52.7266 0.429116 53.5851 1.28735C54.4526 2.13673 54.8864 3.36215 54.8864 4.96359C54.8864 6.62697 54.4572 7.90547 53.5988 8.79909C52.7403 9.69271 51.5669 10.1395 50.0783 10.1395C48.5076 10.1395 47.3113 9.71041 46.4894 8.85217C45.6675 7.98509 45.2566 6.6889 45.2566 4.96359C45.2566 3.43293 45.7041 2.22521 46.599 1.34043C47.494 0.446812 48.6537 0 50.0783 0ZM47.8455 4.96359C47.8455 5.97223 48.0419 6.74641 48.4346 7.28612C48.8272 7.82584 49.3752 8.09569 50.0783 8.09569C51.5577 8.09569 52.2974 7.05166 52.2974 4.96359C52.2974 4.05227 52.0965 3.3356 51.6947 2.81358C51.2929 2.29157 50.7541 2.03056 50.0783 2.03056C49.3569 2.03056 48.8044 2.28272 48.4209 2.78704C48.0373 3.29136 47.8455 4.01688 47.8455 4.96359Z" fill="white"/>
<path d="M39.1135 0.451189L40.0724 2.01724C40.3555 2.48617 40.5199 2.83123 40.5655 3.05243H40.6888C40.7436 2.79584 40.9034 2.45078 41.1682 2.01724L42.1134 0.451189C42.3965 0.300777 42.8577 0.225571 43.4969 0.225571C44.1088 0.225571 44.5152 0.300777 44.7161 0.451189L41.9079 4.89718L44.8941 9.68824C44.6932 9.83865 44.2595 9.91386 43.5928 9.91386C42.8805 9.91386 42.3919 9.83865 42.1271 9.68824L40.8806 7.64441C40.5975 7.17548 40.4331 6.83042 40.3874 6.60922H40.2642C40.2094 6.85696 40.045 7.20645 39.771 7.65768L38.5245 9.68824C38.2688 9.83865 37.8031 9.91386 37.1273 9.91386C36.4698 9.91386 36.0497 9.83865 35.8671 9.68824L39.0176 4.71138L36.3876 0.451189C36.5885 0.300777 37.0177 0.225571 37.6752 0.225571C38.3693 0.225571 38.8487 0.300777 39.1135 0.451189Z" fill="white"/>
<path d="M34.8541 2.25609H30.6488V4.06103H34.5253C34.6349 4.22914 34.6897 4.54766 34.6897 5.01659C34.6897 5.49437 34.6349 5.81731 34.5253 5.98542H30.6488V7.86999H34.9637C35.0733 8.06464 35.1281 8.392 35.1281 8.85209C35.1281 9.31217 35.0733 9.63954 34.9637 9.83419H28.1968V0.305161H34.8541C34.9637 0.499811 35.0185 0.822754 35.0185 1.27399C35.0185 1.73407 34.9637 2.06144 34.8541 2.25609Z" fill="white"/>
<path d="M19.2994 9.70149V0.437899C20.0665 0.252097 21.0939 0.159195 22.3815 0.159195C23.8883 0.159195 25.0298 0.420204 25.806 0.942221C26.5914 1.45539 26.9841 2.30035 26.9841 3.4771C26.9841 4.645 26.6234 5.52978 25.9019 6.13143C25.1805 6.72422 24.2581 7.02062 23.1349 7.02062C22.5687 7.02062 22.1258 6.98966 21.8062 6.92772V9.70149C21.5505 9.83421 21.1304 9.90057 20.5459 9.90057C19.9706 9.90057 19.5551 9.83421 19.2994 9.70149ZM22.6007 2.14994C22.2719 2.14994 21.9979 2.18091 21.7788 2.24284V4.95025C22.0527 5.01219 22.3998 5.04315 22.8198 5.04315C23.9066 5.04315 24.4499 4.56537 24.4499 3.60982C24.4499 2.63656 23.8335 2.14994 22.6007 2.14994Z" fill="white"/>
<path d="M17.449 2.25609H13.2436V4.06103H17.1202C17.2298 4.22914 17.2846 4.54766 17.2846 5.01659C17.2846 5.49437 17.2298 5.81731 17.1202 5.98542H13.2436V7.86999H17.5586C17.6681 8.06464 17.7229 8.392 17.7229 8.85209C17.7229 9.31217 17.6681 9.63954 17.5586 9.83419H10.7917V0.305161H17.449C17.5586 0.499811 17.6133 0.822754 17.6133 1.27399C17.6133 1.73407 17.5586 2.06144 17.449 2.25609Z" fill="white"/>
<path d="M6.26133 9.70147V2.37553H2.83679V9.70147C2.58109 9.83419 2.16558 9.90054 1.59026 9.90054C1.02407 9.90054 0.613121 9.83419 0.357422 9.70147V0.305161H8.74069V9.70147C8.48499 9.83419 8.06948 9.90054 7.49416 9.90054C6.92797 9.90054 6.51703 9.83419 6.26133 9.70147Z" fill="white"/>
<path d="M28.3259 79.5733C26.0429 79.5314 24.8688 78.0156 24.8688 76.086C24.8688 73.9937 26.1987 72.5988 28.3561 72.5988C29.0022 72.6045 29.6376 72.7644 30.2094 73.0653C30.7812 73.3661 31.2728 73.7992 31.6434 74.3284V71.8618C31.0622 71.4526 29.9161 70.9691 28.3561 70.9691C25.0688 70.9691 22.9439 73.08 22.9439 76.0837C22.9439 79.285 25.0967 81.1983 28.3282 81.2123C30.0416 81.2123 31.3505 80.5613 31.841 79.9639V77.7832C31.2738 78.7805 30.0532 79.5733 28.3259 79.5733Z" fill="white"/>
<path d="M33.3986 81.0463H35.0562V75.4318H38.1459V81.0556H39.8035V73.9718H33.3986V81.0463Z" fill="white"/>
<path d="M17.4099 75.9511C17.4099 75.9953 17.4099 76.0418 17.4099 76.0883C17.4099 77.4448 16.8711 78.7457 15.9119 79.7049C14.9527 80.664 13.6518 81.2029 12.2953 81.2029C10.9388 81.2029 9.63787 80.664 8.67869 79.7049C7.71951 78.7457 7.18066 77.4448 7.18066 76.0883C7.18066 74.7318 7.71951 73.4309 8.67869 72.4717C9.63787 71.5125 10.9388 70.9736 12.2953 70.9736C13.3255 70.9725 14.3317 71.2847 15.1804 71.8687L16.473 70.9132C15.2892 69.9551 13.8112 69.4345 12.2883 69.4392C11.4148 69.4389 10.5497 69.6108 9.7426 69.9449C8.93549 70.2791 8.20211 70.769 7.58441 71.3867C6.96671 72.0044 6.47681 72.7378 6.14265 73.5449C5.8085 74.352 5.63666 75.217 5.63696 76.0906C5.63696 77.8547 6.33772 79.5464 7.58509 80.7938C8.83246 82.0412 10.5243 82.742 12.2883 82.742C14.0524 82.742 15.7442 82.0412 16.9915 80.7938C18.2389 79.5464 18.9397 77.8547 18.9397 76.0906C18.9396 75.6907 18.9038 75.2915 18.8327 74.898L17.4099 75.9511Z" fill="white"/>
<path d="M9.76941 74.3116V76.2226L12.3012 77.8105L18.362 73.3398C18.1496 72.8688 17.882 72.4247 17.5646 72.017L12.3012 75.8971L9.76941 74.3116Z" fill="white"/>
<path d="M74.3668 63.7944H12.2937C9.03342 63.795 5.90681 65.0905 3.60142 67.3959C1.29604 69.7012 0.000616374 72.8279 0 76.0882V88.3819H74.3599C75.9745 88.3822 77.5734 88.0644 79.0652 87.4467C80.557 86.8291 81.9125 85.9236 83.0543 84.782C84.1962 83.6403 85.1019 82.285 85.7199 80.7933C86.3378 79.3016 86.6559 77.7028 86.6559 76.0882C86.6565 74.4739 86.3391 72.8754 85.7218 71.3839C85.1045 69.8924 84.1994 68.5371 83.0582 67.3955C81.917 66.2538 80.562 65.3482 79.0707 64.7303C77.5795 64.1125 75.9811 63.7944 74.3668 63.7944ZM81.9714 83.6927C80.9747 84.6941 79.7896 85.488 78.4843 86.0287C77.1791 86.5694 75.7796 86.8461 74.3668 86.8429H1.54369V76.0882C1.54012 74.675 1.81669 73.2751 2.35739 71.9694C2.89809 70.6638 3.69219 69.4782 4.69383 68.4813C5.69074 67.4797 6.8763 66.6855 8.18196 66.1448C9.48763 65.6041 10.8875 65.3276 12.3007 65.3311H74.3738C75.7866 65.3279 77.186 65.6046 78.4913 66.1453C79.7965 66.686 80.9817 67.4799 81.9783 68.4813C82.98 69.4782 83.7741 70.6638 84.3148 71.9694C84.8555 73.2751 85.1321 74.675 85.1285 76.0882C85.1309 77.5014 84.853 78.9012 84.3111 80.2065C83.7692 81.5117 82.974 82.6966 81.9714 83.6927Z" fill="white"/>
<path d="M76.9705 73.8051C74.7596 73.8051 73.2717 75.0233 73.2717 77.4736C73.2717 79.924 74.7015 81.1934 76.9124 81.1934C79.1233 81.1934 80.5972 79.9728 80.5972 77.5225C80.5972 75.0721 79.1651 73.8213 76.9705 73.8051ZM78.9117 77.5248C78.9117 79.0266 78.2143 79.7497 76.9426 79.7497C75.6709 79.7497 74.9572 79.0685 74.9572 77.5108V77.4667C74.9572 75.9788 75.6546 75.2557 76.9147 75.2418C78.1748 75.2279 78.9117 75.923 78.9117 77.4806V77.5248Z" fill="white"/>
<path d="M69.0489 73.9623C67.7726 73.9623 66.9101 74.4854 66.3568 75.2782C66.5404 73.2532 67.0542 72.3605 69.3186 72.1466C70.481 72.049 71.2878 71.9141 71.5714 71.7653V70.0635C70.9902 70.3611 69.5162 70.4192 68.4259 70.6029C65.9871 71.0004 64.9107 72.572 64.9107 76.4847C64.9107 79.7581 66.2568 81.1879 68.6653 81.1879C70.9042 81.1879 72.2363 79.9139 72.2363 77.4054C72.2409 74.8411 70.7926 73.9623 69.0489 73.9623ZM68.5537 79.686C67.2635 79.686 66.6125 78.7375 66.6125 77.4193C66.6125 76.1011 67.3774 75.4362 68.6235 75.4362C69.8138 75.4362 70.5089 76.0732 70.5089 77.5472C70.5089 79.0909 69.6836 79.686 68.5537 79.686Z" fill="white"/>
<path d="M44.5194 73.8218C43.3012 73.8218 42.4503 74.1054 41.983 74.4588V76.5279C42.4643 75.777 43.2175 75.2678 44.5194 75.2678C45.4703 75.2678 45.9515 75.5794 45.9515 76.586V76.8975H44.3427C42.5991 76.8975 41.425 77.3625 41.425 78.9666C41.425 80.3615 42.2736 81.1613 43.7057 81.1613C44.8379 81.1613 45.7051 80.594 46.0445 79.7664V81.0427H47.6021V76.3628C47.6091 74.5309 46.5885 73.8218 44.5194 73.8218ZM45.9515 78.5551C45.8818 79.0364 45.3564 79.6734 44.2358 79.6734C43.4988 79.6734 43.1036 79.334 43.1036 78.7946C43.1036 78.1576 43.5686 77.9739 44.5496 77.9739H45.9445V78.5551H45.9515Z" fill="white"/>
<path d="M58.3391 78.7663V73.9632H56.6954V81.0469H58.267L58.3391 80.9493L61.6682 76.188V81.0469H63.3119V73.9632H61.7403L58.3391 78.7663Z" fill="white"/>
<path d="M52.8501 79.7596C51.5179 79.7596 50.7252 79.0785 50.7252 77.6185V77.4069C50.7252 75.9748 51.4621 75.2518 52.8175 75.2518C53.2734 75.2506 53.7219 75.3675 54.1191 75.5912C54.5164 75.8149 54.8489 76.1377 55.0842 76.5281V74.459C54.6193 74.1056 53.7661 73.822 52.8175 73.808C50.5648 73.822 49.0327 75.0402 49.0327 77.4766C49.0327 79.9572 50.5346 81.1964 52.8036 81.1964C53.9497 81.1964 54.8425 80.7314 55.154 80.3315V78.6298C54.8029 79.2621 54.0264 79.7596 52.8501 79.7596Z" fill="white"/>
</svg>
