<svg width="183" height="113" viewBox="0 0 183 113" fill="none" xmlns="http://www.w3.org/2000/svg">
<path d="M63.1076 0.820312C61.3217 0.820312 59.874 2.26803 59.874 4.05387V109.766C59.874 111.552 61.3217 113 63.1076 113H117.083C118.869 113 120.317 111.552 120.317 109.766V4.05387C120.317 2.26803 118.869 0.820312 117.083 0.820312H63.1076ZM63.6051 4.80008H77.0368C77.5862 4.80008 78.0317 5.24553 78.0317 5.79502V7.28743C78.0317 8.66116 79.1453 9.77478 80.5191 9.77478H89.8466H98.9255C100.299 9.77478 101.413 8.66116 101.413 7.28743V5.79502C101.413 5.24553 101.858 4.80008 102.408 4.80008H116.088V99.3195H63.6051V4.80008ZM89.7969 100.812C90.4421 100.787 91.0858 100.893 91.6891 101.123C92.2924 101.353 92.8429 101.703 93.3076 102.152C93.7723 102.6 94.1415 103.138 94.3931 103.733C94.6446 104.327 94.7734 104.967 94.7716 105.612C94.7676 106.882 94.2598 108.098 93.3596 108.994C92.4595 109.889 91.2407 110.391 89.971 110.388C88.7226 110.378 87.5275 109.88 86.6404 109.002C85.7533 108.123 85.2442 106.933 85.2215 105.685C85.1988 104.437 85.6643 103.229 86.5189 102.319C87.3735 101.408 88.5496 100.868 89.7969 100.812Z" fill="#FFCC00"/>
<path fill-rule="evenodd" clip-rule="evenodd" d="M89.0264 35.6587C88.2114 35.7422 87.3994 35.8283 86.5904 35.917L86.3238 33.4847C87.1385 33.3953 87.9564 33.3086 88.7772 33.2246C89.5241 33.1481 90.2691 33.0743 91.012 33.0031L91.2454 35.4388C90.5077 35.5095 89.768 35.5828 89.0264 35.6587ZM100.133 34.7057C98.6609 34.8073 97.1786 34.9196 95.6868 35.0427L95.4855 32.6041C96.9882 32.4801 98.4814 32.367 99.9641 32.2647L100.133 34.7057ZM81.7253 36.486C80.0921 36.689 78.4731 36.9026 76.8696 37.1261L76.5318 34.7027C78.1473 34.4775 79.7783 34.2623 81.4234 34.0578L81.7253 36.486ZM109.035 34.2147C107.564 34.2751 106.079 34.3465 104.583 34.4291L104.448 31.986C105.956 31.9027 107.452 31.8307 108.935 31.7699L109.035 34.2147ZM72.0242 37.839C70.3947 38.0915 68.7832 38.3543 67.1911 38.6268L66.7783 36.215C68.3832 35.9403 70.0074 35.6755 71.6495 35.421L72.0242 37.839ZM115.717 34.0144C114.979 34.0282 114.236 34.0449 113.49 34.0646L113.426 31.6185C114.178 31.5988 114.927 31.5819 115.672 31.568L115.717 34.0144ZM62.3725 39.4923C61.5658 39.6441 60.7647 39.7984 59.9694 39.9551L59.4963 37.5544C60.2984 37.3963 61.1064 37.2407 61.92 37.0876L62.3725 39.4923Z" fill="#FFCC00"/>
<path fill-rule="evenodd" clip-rule="evenodd" d="M159.501 37.6197C148.553 34.9989 133.3 33.6853 115.718 34.0142L115.672 31.5678C133.371 31.2367 148.849 32.5537 160.07 35.2401C165.674 36.5816 170.287 38.2811 173.595 40.3365C176.882 42.3787 179.09 44.9115 179.404 47.9739C179.689 50.7591 178.348 53.4351 176.004 55.8919C173.654 58.3557 170.165 60.7442 165.791 63.0118C157.031 67.5523 144.454 71.7409 129.534 75.0681L129.001 72.6799C143.814 69.3768 156.164 65.2452 164.665 60.8394C168.92 58.6338 172.145 56.3925 174.234 54.203C176.329 52.0065 177.152 50.0055 176.97 48.2232C176.769 46.2625 175.318 44.2877 172.304 42.4148C169.311 40.5551 164.981 38.9318 159.501 37.6197ZM8.65889 59.3334C6.22369 61.7095 5.2604 63.8739 5.45609 65.785C5.6863 68.0333 7.56759 70.2973 11.498 72.3822C15.3785 74.4406 20.9615 76.1583 27.9325 77.4413C41.5869 79.9543 60.2912 80.7511 81.227 79.3745L80.728 73.5785L93.5231 79.5667L81.9396 87.6535L81.4368 81.8128C60.3496 83.2025 41.4127 82.4102 27.4896 79.8477C20.4044 78.5437 14.5458 76.7687 10.3514 74.5438C6.20708 72.3454 3.38044 69.5355 3.02194 66.0342C2.71623 63.0485 4.27684 60.1904 6.95009 57.5821C9.63786 54.9596 13.616 52.4184 18.5921 50.0184C28.5569 45.2124 42.7918 40.8465 59.4971 37.5542L59.9702 39.9549C43.3777 43.2249 29.3638 47.5398 19.6551 52.2223C14.7944 54.5666 11.0796 56.9716 8.65889 59.3334Z" fill="#FFCC00"/>
<path fill-rule="evenodd" clip-rule="evenodd" d="M81.4364 81.813L81.9392 87.6536L93.5226 79.5669L80.7276 73.5787L81.2265 79.3746C60.2907 80.7512 41.5864 79.9545 27.932 77.4415C20.961 76.1585 15.378 74.4408 11.4976 72.3824C7.56713 70.2975 5.68584 68.0335 5.45563 65.7852L3.02148 66.0344C3.37999 69.5356 6.20663 72.3456 10.351 74.544C14.5453 76.7689 20.404 78.5439 27.4891 79.8479C41.4122 82.4104 60.3491 83.2027 81.4364 81.813ZM174.233 54.2032C176.328 52.0067 177.152 50.0057 176.969 48.2234L179.403 47.9741C179.688 50.7593 178.347 53.4353 176.004 55.8921C173.653 58.3559 170.165 60.7444 165.79 63.0119C157.03 67.5525 144.454 71.7411 129.533 75.0683L129.001 72.6801C143.813 69.3769 156.164 65.2454 164.664 60.8395C168.919 58.6339 172.144 56.3927 174.233 54.2032Z" fill="#FFCC00"/>
</svg>
