<svg width="128" height="128" viewBox="0 0 128 128" fill="none" xmlns="http://www.w3.org/2000/svg">
<path fill-rule="evenodd" clip-rule="evenodd" d="M1.25495 126.821L2.51044 128H64.0708H125.631L126.811 126.745L127.99 125.489V92.5505V59.6117L126.658 58.2807L125.327 56.9492H63.9948H2.66229L1.33142 58.2807L0 59.6117V92.6264V125.641L1.25495 126.821ZM3.05331 61.4237L3.38034 60.2034H63.9948H124.609L124.936 61.4237C125.116 62.0952 125.267 76.3553 125.27 93.114C125.277 120.097 125.18 123.681 124.426 124.436C123.661 125.2 117.434 125.288 63.9948 125.288C10.5554 125.288 4.32833 125.2 3.56364 124.436C2.80926 123.681 2.71273 120.097 2.71924 93.114C2.72303 76.3553 2.8738 62.0952 3.05331 61.4237ZM8.392 100.869C9.05961 101.424 9.37958 101.424 10.0472 100.869C10.7332 100.3 10.8493 98.8285 10.7251 92.2609L10.5754 84.339H9.2196H7.86377L7.71409 92.2609C7.5899 98.8285 7.70596 100.3 8.392 100.869ZM8.3459 53.1026C9.78199 54.2948 10.8466 53.4199 10.8466 51.0476C10.8466 47.641 12.2583 41.1786 13.9601 36.7951C17.9251 26.5839 26.5215 17.939 36.5769 14.0518C42.6482 11.7044 42.5284 11.6784 42.844 15.4153C43.0062 17.3342 43.3939 18.7195 43.8077 18.8556C44.6532 19.1338 53.6906 10.426 53.6906 9.33315C53.6906 7.96691 45.509 0 44.106 0C42.8923 0 42.844 0.16217 42.844 4.25925V8.5185L38.2678 10.0073C21.5006 15.462 9.53089 30.5632 7.86269 48.3677C7.55085 51.6936 7.63437 52.512 8.3459 53.1026ZM15.4092 120.241L16.7178 121.763L60.3699 121.908L104.021 122.053L105.702 120.639L107.381 119.225V92.5207V65.8164L106.126 64.6367L104.871 63.4576H60.8168H16.7629L15.432 64.7892L14.1006 66.1201V92.4198V118.719L15.4092 120.241ZM18.2125 66.4987C18.6843 66.3176 37.9468 66.1695 61.0175 66.1695C98.4284 66.1695 103.057 66.2617 103.818 67.0216C104.567 67.7711 104.67 70.816 104.67 92.2777C104.67 108.063 104.471 117.052 104.108 117.731C103.56 118.754 102.507 118.78 60.8119 118.78C37.3084 118.78 17.9148 118.617 17.7163 118.418C17.5172 118.219 17.3545 106.53 17.3545 92.442C17.3545 69.5859 17.4467 66.7927 18.2125 66.4987ZM47.725 7.32204L49.8937 9.44L48.161 11.2287C47.2076 12.2121 46.2314 13.017 45.9917 13.017C45.752 13.017 45.5557 11.2591 45.5557 9.11024V5.20352L47.725 7.32204ZM57.7651 55.1284C58.2163 55.302 58.9485 55.142 59.3921 54.7737C60.0847 54.1988 60.1985 50.5285 60.1985 28.7425V3.38061L61.4188 3.05356C63.4823 2.50089 123.304 2.6804 124.193 3.2423C124.891 3.68325 125.045 7.39796 125.278 29.4037C125.544 54.599 125.568 55.0508 126.634 55.0508C127.702 55.0508 127.721 54.6424 127.86 28.8618L128 2.67282L126.664 1.3364L125.327 0H92.4671H59.6069L58.276 1.33152L56.9446 2.66251V28.7382C56.9446 51.5135 57.0481 54.8534 57.7651 55.1284ZM64.24 55.1159C64.6733 55.2819 65.2834 55.2602 65.5958 55.0671C65.9733 54.8334 66.1669 48.6698 66.1723 36.7138C66.1772 26.8127 66.3762 18.4043 66.6143 18.0285C66.9554 17.4915 72.5528 17.3755 92.7735 17.4861L118.499 17.6271L118.642 36.2229C118.764 52.1605 118.901 54.8637 119.598 55.1311C120.045 55.303 120.783 55.1349 121.238 54.7574C121.955 54.1624 122.044 51.5943 121.909 35.3947L121.753 16.7186L120.231 15.4099L118.709 14.1017H92.4124H66.1148L64.7839 15.4332L63.4525 16.7642V35.789C63.4525 51.9208 63.5724 54.8599 64.24 55.1159ZM84.3994 10.4629C84.6109 10.6744 88.2522 10.8475 92.491 10.8475C98.6801 10.8475 100.331 10.6875 100.873 10.0339C101.412 9.38413 101.41 9.05383 100.861 8.39268C100.292 7.70657 98.8205 7.59051 92.2534 7.71471C84.7492 7.85627 84.3241 7.92297 84.1738 8.97138C84.0865 9.58047 84.1885 10.2514 84.3994 10.4629ZM109.889 95.3502C112.21 99.9224 118.982 99.8075 121.188 95.1577C122.485 92.4252 121.937 90.0035 119.548 87.9056C116.868 85.5528 114.037 85.5854 111.422 88C109.099 90.1451 108.559 92.7311 109.889 95.3502ZM113.128 90.6663C114.337 88.9405 117.081 89.2263 118.178 91.1919C118.893 92.4713 118.88 92.7691 118.047 94.0393C116.847 95.872 114.317 95.981 113.107 94.2519C112.046 92.7382 112.049 92.2066 113.128 90.6663Z" fill="#FFCC00"/>
</svg>
