<svg width="123" height="35" viewBox="0 0 123 35" fill="none" xmlns="http://www.w3.org/2000/svg">
<path d="M40.3843 22.2159C37.1701 22.157 35.5172 20.0229 35.5172 17.3063C35.5172 14.3605 37.3894 12.3967 40.4268 12.3967C41.3364 12.4047 42.2309 12.6299 43.036 13.0535C43.841 13.477 44.5332 14.0868 45.0549 14.8319V11.3592C44.2367 10.7831 42.623 10.1023 40.4268 10.1023C35.7987 10.1023 32.8071 13.0742 32.8071 17.303C32.8071 21.81 35.838 24.5038 40.3875 24.5234C42.7998 24.5234 44.6425 23.6069 45.3331 22.7658V19.6956C44.5345 21.0998 42.8161 22.2159 40.3843 22.2159Z" fill="white"/>
<path d="M47.5234 24.29H49.8571V16.3856H54.207V24.3031H56.5407V14.3301H47.5234V24.29Z" fill="white"/>
<path d="M25.0191 17.1127C25.0191 17.1749 25.0191 17.2404 25.0191 17.3058C25.0191 19.2156 24.2605 21.0471 22.9101 22.3975C21.5597 23.7479 19.7282 24.5065 17.8184 24.5065C15.9086 24.5065 14.0771 23.7479 12.7267 22.3975C11.3763 21.0471 10.6177 19.2156 10.6177 17.3058C10.6177 15.3961 11.3763 13.5645 12.7267 12.2141C14.0771 10.8637 15.9086 10.1051 17.8184 10.1051C19.2688 10.1035 20.6854 10.543 21.8802 11.3652L23.7001 10.02C22.0335 8.67109 19.9527 7.93818 17.8086 7.94487C16.5787 7.94444 15.3609 8.18637 14.2245 8.65681C13.0882 9.12726 12.0557 9.817 11.1861 10.6866C10.3165 11.5563 9.62673 12.5887 9.15628 13.7251C8.68584 14.8614 8.44391 16.0792 8.44434 17.3091C8.44434 19.7926 9.43091 22.1744 11.187 23.9306C12.9432 25.6867 15.325 26.6733 17.8086 26.6733C20.2921 26.6733 22.674 25.6867 24.4301 23.9306C26.1862 22.1744 27.1728 19.7926 27.1728 17.3091C27.1727 16.746 27.1224 16.1841 27.0222 15.63L25.0191 17.1127Z" fill="white"/>
<path d="M14.252 14.8042V17.4947L17.8163 19.7302L26.3492 13.4361C26.0502 12.773 25.6733 12.1478 25.2265 11.5737L17.8163 17.0365L14.252 14.8042Z" fill="white"/>
<path d="M105.199 0H17.8079C13.2179 0.000867772 8.816 1.82464 5.57032 5.07032C2.32465 8.316 0.500868 12.7178 0.5 17.3079V34.6159H105.189C107.462 34.6163 109.713 34.1689 111.813 33.2993C113.914 32.4297 115.822 31.1549 117.429 29.5476C119.037 27.9404 120.312 26.0322 121.182 23.9321C122.052 21.832 122.5 19.5811 122.5 17.3079C122.501 15.0353 122.054 12.7848 121.185 10.685C120.316 8.58511 119.042 6.67704 117.435 5.06976C115.828 3.46249 113.921 2.1875 111.821 1.31761C109.722 0.447728 107.471 -1.62667e-07 105.199 0ZM115.905 28.0141C114.502 29.4239 112.833 30.5417 110.995 31.3029C109.158 32.0641 107.188 32.4537 105.199 32.4491H2.67332V17.3079C2.66829 15.3183 3.05765 13.3475 3.81889 11.5093C4.58012 9.6711 5.69811 8.00199 7.10829 6.59847C8.51181 5.1883 10.1809 4.07029 12.0191 3.30906C13.8573 2.54782 15.8282 2.15846 17.8178 2.16349H105.208C107.197 2.15889 109.168 2.54847 111.005 3.3097C112.843 4.07092 114.511 5.18869 115.915 6.59847C117.325 8.00199 118.443 9.6711 119.204 11.5093C119.965 13.3475 120.355 15.3183 120.35 17.3079C120.353 19.2976 119.962 21.2683 119.199 23.1059C118.436 24.9436 117.316 26.6118 115.905 28.0141Z" fill="white"/>
<path d="M108.861 14.0959C105.749 14.0959 103.654 15.811 103.654 19.2608C103.654 22.7107 105.667 24.4977 108.779 24.4977C111.892 24.4977 113.967 22.7794 113.967 19.3296C113.967 15.8798 111.951 14.1189 108.861 14.0959ZM111.594 19.3328C111.594 21.4472 110.612 22.4652 108.822 22.4652C107.032 22.4652 106.027 21.5062 106.027 19.3132V19.251C106.027 17.1563 107.009 16.1383 108.783 16.1187C110.557 16.0991 111.594 17.0777 111.594 19.2707V19.3328Z" fill="white"/>
<path d="M97.7152 14.3188C95.9183 14.3188 94.704 15.0552 93.925 16.1713C94.1836 13.3205 94.9069 12.0636 98.0949 11.7625C99.7314 11.625 100.867 11.4352 101.266 11.2257V8.82983C100.448 9.24879 98.3731 9.33061 96.838 9.58919C93.4046 10.1489 91.8892 12.3615 91.8892 17.87C91.8892 22.4785 93.7843 24.4914 97.1752 24.4914C100.327 24.4914 102.203 22.6978 102.203 19.1661C102.209 15.556 100.17 14.3188 97.7152 14.3188ZM97.0181 22.377C95.2015 22.377 94.2851 21.0416 94.2851 19.1858C94.2851 17.33 95.3619 16.3939 97.1162 16.3939C98.792 16.3939 99.7707 17.2907 99.7707 19.3658C99.7707 21.5391 98.6088 22.377 97.0181 22.377Z" fill="white"/>
<path d="M63.1797 14.1165C61.4646 14.1165 60.2667 14.5158 59.6088 15.0133V17.9263C60.2863 16.8691 61.3468 16.1523 63.1797 16.1523C64.5184 16.1523 65.1959 16.5909 65.1959 18.0081V18.4467H62.931C60.4762 18.4467 58.8232 19.1013 58.8232 21.3597C58.8232 23.3236 60.0179 24.4495 62.0341 24.4495C63.6281 24.4495 64.8489 23.6509 65.3268 22.4857V24.2826H67.5198V17.6939C67.5296 15.1147 66.0927 14.1165 63.1797 14.1165ZM65.1959 20.7804C65.0977 21.4579 64.358 22.3547 62.7804 22.3547C61.7428 22.3547 61.1864 21.8769 61.1864 21.1175C61.1864 20.2207 61.841 19.9621 63.2223 19.9621H65.1861V20.7804H65.1959Z" fill="white"/>
<path d="M82.629 21.0756V14.3135H80.3149V24.2865H82.5275L82.629 24.149L87.316 17.4458V24.2865H89.6301V14.3135H87.4175L82.629 21.0756Z" fill="white"/>
<path d="M74.9046 22.4796C73.0292 22.4796 71.913 21.5206 71.913 19.4651V19.1673C71.913 17.1511 72.9506 16.1331 74.8588 16.1331C75.5006 16.1315 76.132 16.2961 76.6913 16.611C77.2505 16.9259 77.7186 17.3804 78.05 17.9301V15.017C77.3954 14.5195 76.1942 14.1202 74.8588 14.1006C71.6872 14.1202 69.5303 15.8353 69.5303 19.2655C69.5303 22.7578 71.6447 24.5024 74.8392 24.5024C76.4528 24.5024 77.7096 23.8478 78.1482 23.2848V20.8889C77.654 21.7792 76.5608 22.4796 74.9046 22.4796Z" fill="white"/>
</svg>
